HIERARCHY
ROOT Hips
{
	OFFSET 0.000000 0.000000 0.000000
	CHANNELS 6 Xposition Yposition Zposition Zrotation Yrotation Xrotation 
	JOINT LHipJoint
	{
		OFFSET 0.000000 0.000000 0.000000
		CHANNELS 3 Zrotation Yrotation Xrotation
		JOINT LeftUpLeg
		{
			OFFSET 1.363060 -1.794630 0.839290
			CHANNELS 3 Zrotation Yrotation Xrotation
			JOINT LeftLeg
			{
				OFFSET 2.448110 -6.726130 0.000000
				CHANNELS 3 Zrotation Yrotation Xrotation
				JOINT LeftFoot
				{
					OFFSET 2.562200 -7.039590 0.000000
					CHANNELS 3 Zrotation Yrotation Xrotation
					JOINT LeftToeBase
					{
						OFFSET 0.157640 -0.433110 2.322550
						CHANNELS 3 Zrotation Yrotation Xrotation
						End Site
						{
							OFFSET 0.000000 0.000000 0.000000
						}
					}
				}
			}
		}
	}
	JOINT RHipJoint
	{
		OFFSET 0.000000 0.000000 0.000000
		CHANNELS 3 Zrotation Yrotation Xrotation
		JOINT RightUpLeg
		{
			OFFSET -1.305520 -1.794630 0.839290
			CHANNELS 3 Zrotation Yrotation Xrotation
			JOINT RightLeg
			{
				OFFSET -2.542530 -6.985550 0.000000
				CHANNELS 3 Zrotation Yrotation Xrotation
				JOINT RightFoot
				{
					OFFSET -2.568260 -7.056230 0.000000
					CHANNELS 3 Zrotation Yrotation Xrotation
					JOINT RightToeBase
					{
						OFFSET -0.164730 -0.452590 2.363150
						CHANNELS 3 Zrotation Yrotation Xrotation
						End Site
						{
							OFFSET 0.000000 0.000000 0.000000
						}
					}
				}
			}
		}
	}
	JOINT LowerBack
	{
		OFFSET 0.000000 0.000000 0.000000
		CHANNELS 3 Zrotation Yrotation Xrotation
		JOINT Spine
		{
			OFFSET 0.028270 2.035590 -0.193380
			CHANNELS 3 Zrotation Yrotation Xrotation
			JOINT Spine1
			{
				OFFSET 0.056720 2.048850 -0.042750
				CHANNELS 3 Zrotation Yrotation Xrotation
				JOINT Neck
				{
					OFFSET 0.000000 0.000000 0.000000
					CHANNELS 3 Zrotation Yrotation Xrotation
					JOINT Neck1
					{
						OFFSET -0.054170 1.746240 0.172020
						CHANNELS 3 Zrotation Yrotation Xrotation
						JOINT Head
						{
							OFFSET 0.104070 1.761360 -0.123970
							CHANNELS 3 Zrotation Yrotation Xrotation
							End Site
							{
								OFFSET 0.000000 0.000000 0.000000
							}
						}
					}
				}
				JOINT LeftShoulder
				{
					OFFSET 0.000000 0.000000 0.000000
					CHANNELS 3 Zrotation Yrotation Xrotation
					JOINT LeftArm
					{
						OFFSET 3.362410 1.200890 -0.311210
						CHANNELS 3 Zrotation Yrotation Xrotation
						JOINT LeftForeArm
						{
							OFFSET 4.983000 -0.000000 -0.000000
							CHANNELS 3 Zrotation Yrotation Xrotation
							JOINT LeftHand
							{
								OFFSET 3.483560 -0.000000 -0.000000
								CHANNELS 3 Zrotation Yrotation Xrotation
								JOINT LeftFingerBase
								{
									OFFSET 0.000000 0.000000 0.000000
									CHANNELS 3 Zrotation Yrotation Xrotation
									JOINT LeftHandIndex1
									{
										OFFSET 0.715260 -0.000000 -0.000000
										CHANNELS 3 Zrotation Yrotation Xrotation
										End Site
										{
											OFFSET 0.000000 0.000000 0.000000
										}
									}
								}
								JOINT LThumb
								{
									OFFSET 0.000000 0.000000 0.000000
									CHANNELS 3 Zrotation Yrotation Xrotation
									End Site
									{
										OFFSET 0.000000 0.000000 0.000000
									}
								}
							}
						}
					}
				}
				JOINT RightShoulder
				{
					OFFSET 0.000000 0.000000 0.000000
					CHANNELS 3 Zrotation Yrotation Xrotation
					JOINT RightArm
					{
						OFFSET -3.136600 1.374050 -0.404650
						CHANNELS 3 Zrotation Yrotation Xrotation
						JOINT RightForeArm
						{
							OFFSET -5.241900 -0.000000 -0.000000
							CHANNELS 3 Zrotation Yrotation Xrotation
							JOINT RightHand
							{
								OFFSET -3.444170 -0.000000 -0.000000
								CHANNELS 3 Zrotation Yrotation Xrotation
								JOINT RightFingerBase
								{
									OFFSET 0.000000 0.000000 0.000000
									CHANNELS 3 Zrotation Yrotation Xrotation
									JOINT RightHandIndex1
									{
										OFFSET -0.622530 -0.000000 -0.000000
										CHANNELS 3 Zrotation Yrotation Xrotation
										End Site
										{
											OFFSET 0.000000 0.000000 0.000000
										}
									}
								}
								JOINT RThumb
								{
									OFFSET 0.000000 0.000000 0.000000
									CHANNELS 3 Zrotation Yrotation Xrotation
									End Site
									{
										OFFSET 0.000000 0.000000 0.000000
									}
								}
							}
						}
					}
				}
			}
		}
	}
}
MOTION
Frames: 12
Frame Time: 0.008333
0.971454 17.894357 -16.545928 -3.284270 6.237468 5.509798 1.829452 0.994529 0.140094 -17.162558 -6.874752 2.585037 5.134146 13.615195 42.712245 0.832985 -1.349637 16.247390 0.207500 2.932600 8.091100 -4.265649 -1.100850 -0.753789 30.206866 7.545384 -17.982280 -1.201485 -6.934756 19.285966 0.865341 -9.316452 -3.743728 -0.812800 -5.753100 16.069700 3.356598 -2.438737 4.987556 1.984073 -3.024838 -1.542375 4.608780 -1.911260 -0.296597 -4.170192 -1.557244 -12.091288 3.204331 -1.407522 16.543871 0.346100 -0.677400 9.585300 1.226436 4.775969 -0.668881 -91.090269 6.639621 25.928846 13.064582 -21.822444 -2.148102 0.463999 -0.072026 15.291022 -4.824701 41.868644 -3.531200 -7.125000 0.000000 0.000000 -52.510500 64.090200 -27.850800 -0.017657 -4.952566 -1.411790 86.498649 -4.322075 -32.113962 -5.436911 10.100084 -0.109596 0.982505 -0.149271 19.012018 -14.303233 15.846299 -4.199900 7.125000 0.000000 0.000000 8.315500 -13.967200 6.128700 
0.958343 17.889478 -16.425385 -3.311164 6.707988 5.387786 1.838064 0.976072 0.140723 -16.914673 -7.280952 1.634397 5.630033 14.141695 44.783655 0.810132 -1.457849 15.830422 0.181600 2.744700 7.568700 -4.258466 -1.104791 -0.802281 30.398872 6.716921 -17.543073 -1.196009 -6.879489 19.181563 0.829776 -8.999427 -3.864480 -0.863600 -5.925800 16.569200 3.497722 -2.515126 4.857196 1.977717 -3.132749 -1.522953 4.490745 -1.963929 -0.144676 -4.144594 -1.777266 -12.346590 3.043827 -1.683501 16.469507 0.247900 -0.821100 9.618800 1.213006 4.773994 -0.677990 -90.932655 6.302310 26.848610 13.468259 -22.440770 -2.294603 0.464794 -0.069723 14.821506 -5.044481 42.790744 -3.744300 -7.125000 0.000000 0.000000 -54.180100 64.602000 -29.602700 -0.019987 -4.952540 -1.403700 86.635683 -3.764339 -30.767385 -5.477716 10.124148 -0.114012 0.988969 -0.118200 17.824312 -14.432986 15.712071 -4.198700 7.125000 0.000000 0.000000 8.226000 -14.104200 6.037200 
0.940048 17.898524 -16.299863 -3.448765 7.092630 5.108485 1.851389 0.971062 0.156999 -16.417514 -7.286374 0.617213 6.127963 14.627970 46.788100 0.777107 -1.662855 15.194837 0.252500 3.233400 8.929100 -4.241432 -1.116537 -0.860767 30.841047 5.413649 -17.020337 -1.189701 -6.796134 19.015921 0.757004 -8.372636 -3.719558 -0.636600 -5.104800 14.207700 3.661791 -2.451572 5.022199 1.918255 -3.023169 -1.580834 4.223370 -1.893749 -0.428985 -3.788931 -1.887593 -11.898585 2.929100 -1.942656 16.403037 0.101700 -0.917400 9.495400 1.222486 4.752176 -0.689553 -90.566934 6.112790 27.654216 13.665138 -22.721753 -2.371702 0.463633 -0.068518 14.979991 -5.166328 42.897967 -3.833700 -7.125000 0.000000 0.000000 -54.455800 64.630900 -29.830500 -0.008583 -4.944347 -1.389535 87.042869 -3.699061 -32.588416 -5.361244 9.973739 -0.076809 1.000905 -0.204208 19.455064 -14.422024 16.779757 -4.498300 7.125000 0.000000 0.000000 8.229900 -12.969600 6.239000 
0.910472 17.907570 -16.174442 -3.875043 7.266405 4.897255 1.855071 0.950347 0.155319 -15.514810 -7.097725 -0.868152 6.609973 15.067454 48.671458 0.811543 -2.336913 15.092129 0.249200 3.212100 8.869900 -4.259357 -1.106435 -0.892827 31.530088 5.294963 -16.287049 -1.167507 -6.761457 18.943268 0.788024 -8.573325 -4.137172 -0.668100 -5.227200 14.557800 3.947909 -2.448597 5.059754 1.990911 -3.006371 -1.566804 4.324272 -1.886013 -0.430481 -4.266673 -1.759785 -11.743304 3.345818 -1.715056 16.216610 0.399800 -0.816300 9.374800 1.218458 4.755274 -0.682227 -90.559153 5.761305 28.164193 13.959723 -23.169855 -2.489945 0.462976 -0.067603 14.538542 -4.869496 43.223896 -3.653300 -7.125000 0.000000 0.000000 -54.745800 64.918300 -30.377900 -0.010887 -4.921799 -1.373139 87.109160 -3.311132 -30.570266 -5.515530 10.206504 -0.109297 0.999038 -0.167750 17.647615 -14.196939 16.670031 -4.398800 7.125000 0.000000 0.000000 8.383600 -13.103600 6.334300 
0.888010 17.905639 -16.058575 -4.382141 7.182448 4.544766 1.864225 0.935997 0.165982 -14.669106 -6.892178 -1.637320 7.055897 15.437101 50.378152 0.780855 -3.415376 13.737894 0.342900 3.762900 10.410700 -4.274515 -1.086796 -0.922422 32.271236 5.560134 -15.204016 -1.119980 -6.667823 18.691840 0.844982 -8.974799 -4.568969 -0.587100 -4.906100 13.640800 4.381796 -2.315238 5.234760 1.989121 -2.789517 -1.585366 4.103582 -1.774616 -0.591405 -4.002812 -2.005171 -11.835884 3.187444 -2.083165 16.540524 0.252100 -0.973700 9.550200 1.223898 4.745344 -0.697618 -90.379711 5.408974 28.258709 14.088423 -23.350965 -2.550340 0.463134 -0.068433 14.972437 -4.957215 42.587110 -3.669200 -7.125000 0.000000 0.000000 -53.768200 64.501600 -29.196600 0.003939 -4.906977 -1.377611 87.344667 -3.281574 -29.584507 -5.562456 10.253118 -0.118519 0.999148 -0.151676 16.960827 -14.203044 16.581298 -4.376000 7.125000 0.000000 0.000000 8.379800 -13.196700 6.314800 
0.868902 17.917530 -15.928275 -4.270546 7.226026 4.442340 1.874510 0.918325 0.162678 -14.494827 -6.735366 -2.899058 7.448273 15.762228 51.835570 0.801028 -3.377294 14.072688 0.396800 4.044300 11.201300 -4.275271 -1.075691 -0.946258 32.317553 5.459010 -14.472214 -1.104921 -6.612709 18.574977 0.857872 -9.049571 -4.792770 -0.619000 -5.035200 14.009000 4.106562 -2.241500 5.107164 1.979434 -2.718045 -1.623148 4.230043 -1.735139 -0.622191 -3.939775 -2.163074 -11.712692 2.991681 -2.294578 16.637774 0.131800 -1.081500 9.564200 1.236905 4.734949 -0.700799 -90.288550 5.334383 28.869865 14.506778 -23.996196 -2.737737 0.462692 -0.068627 14.355951 -3.712382 42.341439 -2.812700 -7.125000 0.000000 0.000000 -52.293300 64.715400 -28.429300 0.011935 -4.899782 -1.378883 87.287652 -2.914329 -29.105409 -5.501337 10.080112 -0.094442 1.013344 -0.137636 16.622187 -14.609026 16.564910 -4.493000 7.125000 0.000000 0.000000 8.101300 -13.188700 6.101900 
0.846643 17.916819 -15.794011 -4.455645 7.443914 4.050750 1.867931 0.902131 0.166032 -13.950494 -6.539588 -3.558656 7.795923 16.035468 53.126568 0.720477 -4.127738 11.863755 0.538100 4.700200 13.055400 -4.270376 -1.064092 -1.013433 32.728590 4.925297 -13.575121 -1.083323 -6.554938 18.454626 0.853911 -8.995654 -5.324823 -0.748900 -5.527700 15.420100 4.218342 -2.276054 5.057121 1.990600 -2.769044 -1.499728 4.201571 -1.773046 -0.237474 -4.180877 -2.123969 -11.996387 3.155896 -2.179557 16.790331 0.272300 -1.033100 9.675400 1.211600 4.761477 -0.690963 -90.409553 4.419337 28.670662 14.738716 -24.351348 -2.829327 0.466143 -0.072429 14.298847 -3.609862 42.722781 -2.766600 -7.125000 0.000000 0.000000 -52.835800 64.985600 -29.115500 0.002522 -4.901241 -1.357620 87.450490 -2.380772 -26.947086 -5.655263 10.329244 -0.112790 1.031413 -0.112736 15.115243 -14.767489 16.822892 -4.613200 7.125000 0.000000 0.000000 7.991300 -12.914300 6.063800 
0.835463 17.924848 -15.674079 -4.084764 7.165667 3.788554 1.869827 0.897194 0.176932 -14.230258 -6.287531 -4.294351 8.075750 16.259783 54.143633 0.638885 -3.657436 10.629095 0.809700 5.742600 16.039300 -4.239469 -1.047403 -1.038465 32.442318 4.640480 -12.898586 -1.093950 -6.557110 18.520806 0.818067 -8.734836 -5.866967 -0.782400 -5.647000 15.763600 3.731030 -2.029688 5.240652 1.905586 -2.442103 -1.580713 4.280670 -1.603777 -0.572785 -4.357066 -2.309417 -11.774443 3.192682 -2.394839 17.317909 0.311700 -1.133700 9.867100 1.208511 4.751652 -0.709100 -90.324789 4.399662 29.221104 15.079240 -24.833138 -2.972965 0.461333 -0.065988 13.717807 -3.791601 43.179739 -2.911000 -7.125000 0.000000 0.000000 -53.752000 65.215900 -30.024800 -0.006252 -4.853073 -1.357532 87.398683 -2.134954 -29.011047 -5.455867 9.996512 -0.068589 1.029254 -0.184300 16.995395 -14.660628 17.383441 -4.743200 7.125000 0.000000 0.000000 8.068200 -12.317700 6.224800 
0.802532 17.917022 -15.555264 -4.696400 7.152518 3.549249 1.873341 0.885480 0.157594 -13.129409 -5.973323 -5.420989 8.372859 16.486219 55.185101 0.564399 -3.072630 9.604237 0.771400 5.608300 15.652000 -4.251549 -1.036998 -1.057083 33.352554 4.858162 -12.129301 -1.071723 -6.566163 18.549967 0.867870 -9.129510 -6.532670 -0.861300 -5.918000 16.546800 4.141326 -1.853031 5.163554 1.914089 -2.197547 -1.514543 4.082235 -1.485893 -0.355632 -3.877336 -2.404002 -12.030513 2.901515 -2.580838 17.687882 0.078800 -1.197100 10.072100 1.218296 4.755648 -0.718535 -90.099621 3.865016 29.542096 15.513683 -25.480768 -3.177126 0.465769 -0.068542 13.026348 -2.234138 42.571546 -1.827800 -7.125000 0.000000 0.000000 -51.386600 65.302800 -28.475500 0.028760 -4.865651 -1.343333 87.856833 -1.535079 -28.427615 -5.538911 10.136204 -0.080812 1.039463 -0.144999 16.540455 -15.155050 17.003410 -4.785500 7.125000 0.000000 0.000000 7.729600 -12.690900 5.897800 
0.791149 17.922409 -15.426794 -4.242616 6.883605 3.391944 1.862076 0.877540 0.166644 -13.519819 -5.660846 -6.219915 8.586266 16.659852 55.951733 0.466953 -2.448485 8.076735 0.692100 5.318400 14.819100 -4.228402 -1.027595 -1.094170 33.021282 4.302289 -11.515894 -1.086864 -6.550923 18.573871 0.791431 -8.563354 -6.714549 -0.926900 -6.133500 17.172100 3.445305 -1.775495 5.170125 1.897378 -2.129236 -1.536601 4.440035 -1.454913 -0.394737 -4.110231 -2.354555 -12.011469 2.830606 -2.432457 17.945299 0.109600 -1.154600 10.178900 1.221126 4.747976 -0.714425 -90.462521 3.497348 29.032032 15.772255 -25.869642 -3.300370 0.462676 -0.072732 12.784117 -1.269124 42.467721 -1.171800 -7.125000 0.000000 0.000000 -50.365000 65.528900 -28.026500 0.025982 -4.845135 -1.352242 87.576149 -1.195329 -27.675060 -5.501610 10.008668 -0.061387 1.049736 -0.149284 16.377367 -15.336058 17.216433 -4.905100 7.125000 0.000000 0.000000 7.607700 -12.452000 5.841300 
0.770618 17.927999 -15.319769 -4.461674 6.834492 3.170118 1.869788 0.863704 0.161052 -13.007593 -5.585061 -7.284500 8.812183 16.830634 56.745708 0.428152 -2.431911 6.675136 0.670800 5.237700 14.587600 -4.221777 -1.008910 -1.109399 33.406212 4.507766 -10.819481 -1.078530 -6.563582 18.627840 0.835255 -8.913348 -7.118067 -0.790700 -5.676200 15.847900 3.649074 -1.604335 5.261336 1.836165 -1.879085 -1.545059 4.205041 -1.324996 -0.514893 -4.449126 -2.367615 -11.750430 3.507396 -2.479401 17.982339 0.474200 -1.135400 10.136700 1.196730 4.760809 -0.722539 -90.293582 3.341437 29.151917 16.384382 -26.718822 -3.585241 0.462808 -0.071982 12.122949 -0.628942 42.146150 -0.735500 -7.125000 0.000000 0.000000 -49.264500 65.513300 -27.262000 0.005401 -4.802679 -1.320630 87.903348 -0.688401 -29.146976 -5.444607 9.953809 -0.044038 1.058496 -0.161405 17.608451 -15.897619 17.184759 -5.070500 7.125000 0.000000 0.000000 7.227800 -12.443500 5.546000 
0.756287 17.915904 -15.202479 -4.869145 6.499677 2.958493 1.865294 0.858636 0.166123 -12.362828 -5.193631 -8.302171 8.974269 16.951182 57.301714 0.390435 -2.248311 5.511298 0.668500 5.228700 14.562100 -4.215506 -1.006953 -1.107913 33.993887 4.382692 -10.411443 -1.110875 -6.668928 18.960541 0.779214 -8.523093 -7.425331 -0.756000 -5.553300 15.493500 3.971354 -1.418438 5.337313 1.836175 -1.606413 -1.636056 4.044424 -1.175374 -0.855042 -4.278710 -2.368545 -11.391825 3.271005 -2.510866 18.069449 0.344500 -1.157500 10.101100 1.216999 4.732795 -0.733299 -90.348998 3.310991 29.217185 16.842892 -27.330431 -3.791681 0.459143 -0.070976 10.955710 0.570484 42.722786 0.071900 -7.125000 0.000000 0.000000 -49.164500 66.260100 -27.995400 0.018276 -4.791632 -1.335252 88.024152 -0.963821 -26.672668 -5.630199 10.199097 -0.077064 1.064015 -0.080262 15.013601 -16.156452 16.722090 -5.004000 7.125000 0.000000 0.000000 7.045800 -12.925300 5.332600 
